<?xml version="1.0" encoding="utf-8"?>
<!-- Generator: Adobe Illustrator 26.0.1, SVG Export Plug-In . SVG Version: 6.00 Build 0)  -->
<svg version="1.1" id="Layer_1" xmlns="http://www.w3.org/2000/svg" xmlns:xlink="http://www.w3.org/1999/xlink" x="0px" y="0px"
	 viewBox="0 0 168 27" style="enable-background:new 0 0 168 27;" xml:space="preserve">
<style type="text/css">
	.st0{fill:url(#SVGID_1_);}
	.st1{fill:url(#SVGID_00000013892119733567382410000014554944688471318452_);}
	.st2{fill:url(#SVGID_00000006699411437111243420000001577196683855902142_);}
	.st3{fill:url(#SVGID_00000037656958579984073120000015666746977081958019_);}
	.st4{fill:url(#SVGID_00000096739084187995979680000007308960812302497205_);}
	.st5{fill:url(#SVGID_00000019663048112355817310000001700874268642843581_);}
	.st6{fill:url(#SVGID_00000006703963413172403080000011735411429015718307_);}
	.st7{fill:url(#SVGID_00000059992786968335798930000003732764245648859302_);}
	.st8{fill:none;stroke:url(#SVGID_00000125601974690003973690000013087460456043814272_);stroke-width:0.5493;}
	.st9{fill:none;stroke:url(#SVGID_00000116936162706213993100000013490640226821947040_);stroke-width:0.5493;}
	.st10{fill:url(#SVGID_00000131357057375681640930000010101324472368268677_);}
	.st11{fill:#665BF1;}
	.st12{fill:#665CF1;}
	.st13{fill:#A9A2F7;}
	.st14{fill:#C4C0F9;}
</style>
<g>
	
		<linearGradient id="SVGID_1_" gradientUnits="userSpaceOnUse" x1="31.3512" y1="26.1146" x2="31.6624" y2="26.1083" gradientTransform="matrix(1 0 0 -1 0 27.8898)">
		<stop  offset="0" style="stop-color:#26A4FF"/>
		<stop  offset="1" style="stop-color:#0D9AFF"/>
	</linearGradient>
	<path class="st0" d="M31.5,1.9c0.1,0,0.2-0.1,0.2-0.2c0-0.1-0.1-0.2-0.2-0.2c-0.1,0-0.2,0.1-0.2,0.2C31.3,1.9,31.4,1.9,31.5,1.9z"
		/>
</g>
<g>
	
		<linearGradient id="SVGID_00000124852377319784857170000002122787929096357026_" gradientUnits="userSpaceOnUse" x1="5.3017" y1="22.2818" x2="6.109" y2="22.2655" gradientTransform="matrix(1 0 0 -1 0 27.8898)">
		<stop  offset="0" style="stop-color:#26A4FF"/>
		<stop  offset="1" style="stop-color:#0D9AFF"/>
	</linearGradient>
	<path style="fill:url(#SVGID_00000124852377319784857170000002122787929096357026_);" d="M5.7,6c0.2,0,0.4-0.2,0.4-0.4
		c0-0.2-0.2-0.4-0.4-0.4S5.3,5.4,5.3,5.6C5.3,5.8,5.5,6,5.7,6z"/>
</g>
<g>
	
		<linearGradient id="SVGID_00000080201278963710878550000012888064018464493195_" gradientUnits="userSpaceOnUse" x1="1.1195" y1="9.9135" x2="1.9269" y2="9.8973" gradientTransform="matrix(1 0 0 -1 0 27.8898)">
		<stop  offset="0" style="stop-color:#26A4FF"/>
		<stop  offset="1" style="stop-color:#0D9AFF"/>
	</linearGradient>
	<path style="fill:url(#SVGID_00000080201278963710878550000012888064018464493195_);" d="M1.5,18.4c0.2,0,0.4-0.2,0.4-0.4
		c0-0.2-0.2-0.4-0.4-0.4S1.1,17.8,1.1,18C1.1,18.2,1.3,18.4,1.5,18.4z"/>
</g>
<g>
	
		<linearGradient id="SVGID_00000070080170429668166610000011099837886697856955_" gradientUnits="userSpaceOnUse" x1="25.1602" y1="6.5183" x2="25.9675" y2="6.5019" gradientTransform="matrix(1 0 0 -1 0 27.8898)">
		<stop  offset="0" style="stop-color:#26A4FF"/>
		<stop  offset="1" style="stop-color:#0D9AFF"/>
	</linearGradient>
	<path style="fill:url(#SVGID_00000070080170429668166610000011099837886697856955_);" d="M25.5,21.8c0.2,0,0.4-0.2,0.4-0.4
		S25.8,21,25.5,21c-0.2,0-0.4,0.2-0.4,0.4S25.3,21.8,25.5,21.8z"/>
</g>
<g>
	
		<linearGradient id="SVGID_00000014592850066074022290000012635701418090698677_" gradientUnits="userSpaceOnUse" x1="6.3801" y1="13.4041" x2="6.6913" y2="13.3979" gradientTransform="matrix(1 0 0 -1 0 27.8898)">
		<stop  offset="0" style="stop-color:#26A4FF"/>
		<stop  offset="1" style="stop-color:#0D9AFF"/>
	</linearGradient>
	<path style="fill:url(#SVGID_00000014592850066074022290000012635701418090698677_);" d="M6.5,14.7c0.1,0,0.2-0.1,0.2-0.2
		s-0.1-0.2-0.2-0.2c-0.1,0-0.2,0.1-0.2,0.2S6.4,14.7,6.5,14.7z"/>
</g>
<g>
	
		<linearGradient id="SVGID_00000183227093263259712380000016292972143774930874_" gradientUnits="userSpaceOnUse" x1="12.2925" y1="26.6387" x2="12.7815" y2="26.6288" gradientTransform="matrix(1 0 0 -1 0 27.8898)">
		<stop  offset="0" style="stop-color:#26A4FF"/>
		<stop  offset="1" style="stop-color:#0D9AFF"/>
	</linearGradient>
	<path style="fill:url(#SVGID_00000183227093263259712380000016292972143774930874_);" d="M12.5,1.5c0.1,0,0.2-0.1,0.2-0.3
		S12.7,1,12.5,1c-0.1,0-0.2,0.1-0.2,0.3S12.4,1.5,12.5,1.5z"/>
</g>
<g>
	
		<linearGradient id="SVGID_00000151536877287933900080000014242801955400035721_" gradientUnits="userSpaceOnUse" x1="4.1976" y1="16.451" x2="1.7608" y2="16.0471" gradientTransform="matrix(1 0 0 -1 0 27.8898)">
		<stop  offset="0" style="stop-color:#26A4FF"/>
		<stop  offset="1" style="stop-color:#0D9AFF"/>
	</linearGradient>
	<path style="fill:url(#SVGID_00000151536877287933900080000014242801955400035721_);" d="M3.2,12.9c-0.1,0-0.2,0-0.2-0.1
		C2.8,12,2.7,11.9,2,12c-0.1,0-0.2-0.1-0.2-0.1c0-0.1,0-0.2,0.1-0.2c0.7-0.2,0.8-0.3,0.8-1.1c0-0.1,0.1-0.2,0.1-0.2
		c0.1,0,0.2,0,0.2,0.1c0.2,0.8,0.3,0.8,1.1,0.8c0.1,0,0.2,0.1,0.2,0.1c0,0.1,0,0.2-0.1,0.2c-0.7,0.2-0.8,0.3-0.8,1.1
		C3.4,12.8,3.3,12.9,3.2,12.9z"/>
</g>
<linearGradient id="SVGID_00000024718236544381702740000011940160824530916771_" gradientUnits="userSpaceOnUse" x1="2.6669" y1="27.2939" x2="27.6076" y2="3.3123" gradientTransform="matrix(1 0 0 -1 0 27.8898)">
	<stop  offset="0" style="stop-color:#868CFF"/>
	<stop  offset="1" style="stop-color:#4318FF"/>
</linearGradient>
<path style="fill:url(#SVGID_00000024718236544381702740000011940160824530916771_);" d="M16.6,6.2c-0.2,0.1-0.4,0.3-0.4,0.5
	c0,0.2,0.1,0.4,0.4,0.5c1.7,0.7,3,2,3.6,3.8c0.1,0.2,0.3,0.4,0.5,0.4c0.2,0,0.4-0.1,0.5-0.4c0.6-1.8,2-3.1,3.6-3.8
	c0.2-0.1,0.4-0.3,0.4-0.5c0-0.2-0.1-0.4-0.4-0.5c-1.7-0.7-3-2-3.6-3.8C21.2,2.2,21,2,20.8,2c-0.2,0-0.4,0.1-0.5,0.4
	C19.6,4.2,18.3,5.5,16.6,6.2z M10.9,5.6c-0.1-0.3-0.4-0.5-0.7-0.5c-0.3,0-0.6,0.2-0.7,0.5c-1.6,3.6-4.4,6.5-7.8,8.1
	c-0.3,0.1-0.4,0.4-0.4,0.7c0,0.3,0.2,0.6,0.4,0.7c3.4,1.7,6.2,4.5,7.8,8.1c0.1,0.3,0.4,0.5,0.7,0.5c0.3,0,0.6-0.2,0.7-0.5
	c1.6-3.6,4.4-6.5,7.8-8.1c0.3-0.1,0.4-0.4,0.4-0.7c0-0.3-0.2-0.6-0.4-0.7C15.3,12.1,12.5,9.2,10.9,5.6z M20.3,18
	c-0.6,1.8-2,3.1-3.6,3.8c-0.2,0.1-0.4,0.3-0.4,0.5c0,0.2,0.1,0.4,0.4,0.5c1.7,0.7,3,2,3.6,3.8c0.1,0.2,0.3,0.4,0.5,0.4
	c0.2,0,0.4-0.1,0.5-0.4c0.6-1.8,2-3.1,3.6-3.8c0.2-0.1,0.4-0.3,0.4-0.5c0-0.2-0.1-0.4-0.4-0.5c-1.7-0.7-3-2-3.6-3.8
	c-0.1-0.2-0.3-0.4-0.5-0.4C20.6,17.6,20.4,17.8,20.3,18z"/>
<linearGradient id="SVGID_00000094619934783653933420000012220115005878665392_" gradientUnits="userSpaceOnUse" x1="14.3589" y1="7.7577" x2="13.2905" y2="10.7717" gradientTransform="matrix(1 0 0 -1 0 27.8898)">
	<stop  offset="0" style="stop-color:#3F5FFF"/>
	<stop  offset="1" style="stop-color:#3F5FFF;stop-opacity:0"/>
</linearGradient>
<path style="fill:none;stroke:url(#SVGID_00000094619934783653933420000012220115005878665392_);stroke-width:0.5493;" d="M13,16.1
	c-7.2,2.6-12.6,5.7-12.2,7c0.4,1.3,6.6,0.2,13.7-2.4c7.2-2.6,12.6-5.7,12.2-7C26.3,12.4,20.1,13.5,13,16.1z"/>
<g>
	
		<linearGradient id="SVGID_00000090273960092109003570000008724197386751895458_" gradientUnits="userSpaceOnUse" x1="14.3588" y1="7.7582" x2="13.2904" y2="10.7721" gradientTransform="matrix(1 0 0 -1 0 27.8898)">
		<stop  offset="0" style="stop-color:#1DA0FF"/>
		<stop  offset="1" style="stop-color:#199FFF;stop-opacity:0.13"/>
	</linearGradient>
	<path style="fill:none;stroke:url(#SVGID_00000090273960092109003570000008724197386751895458_);stroke-width:0.5493;" d="M13,16.1
		c-7.2,2.6-12.6,5.7-12.2,7c0.4,1.3,6.6,0.2,13.7-2.4c7.2-2.6,12.6-5.7,12.2-7C26.3,12.4,20.1,13.5,13,16.1z"/>
</g>
<g>
	
		<linearGradient id="SVGID_00000093873471628005245650000013458643420717727105_" gradientUnits="userSpaceOnUse" x1="25.7174" y1="22.1014" x2="22.3361" y2="22.4979" gradientTransform="matrix(1 0 0 -1 0 27.8898)">
		<stop  offset="0" style="stop-color:#26A4FF"/>
		<stop  offset="1" style="stop-color:#0D9AFF"/>
	</linearGradient>
	<path style="fill:url(#SVGID_00000093873471628005245650000013458643420717727105_);" d="M23.9,7.4c-0.1,0-0.2-0.1-0.2-0.2
		c0-1.1-0.1-1.3-1.1-1.5c-0.1,0-0.2-0.1-0.2-0.3c0-0.1,0.1-0.2,0.2-0.2c1,0,1.1-0.1,1.5-1.1c0-0.1,0.1-0.2,0.2-0.2
		c0.1,0,0.2,0.1,0.2,0.2c0,1.1,0.1,1.3,1.1,1.5c0.1,0,0.2,0.1,0.2,0.3c0,0.1-0.1,0.2-0.2,0.2c-1,0-1.1,0.1-1.5,1.1
		C24.1,7.3,24,7.4,23.9,7.4z"/>
</g>
<g>
	<path class="st11" d="M81,10.7c-0.9,3.5-1.8,7.1-2.7,10.6c-0.3,1.2-1.2,1.7-2.3,1.4c-0.6-0.2-0.9-0.5-1.1-1
		c-0.3-0.7-0.4-1.4-0.6-2.2c-0.7-2.9-1.5-5.8-2.2-8.7c0,0,0-0.1,0-0.1c0-0.1,0-0.2-0.1-0.2c0,0.1,0,0.2,0,0.2c0,3.4,0,6.8,0,10.2
		c0,0.2,0,0.5-0.1,0.7c-0.1,0.8-0.6,1.3-1.4,1.3c-0.8,0-1.3-0.5-1.4-1.3c0-0.3,0-0.6,0-1c0-3.8,0-7.7,0-11.5c0-0.2,0-0.3,0-0.5
		c0.1-1,0.5-1.5,1.5-1.6c0.8-0.1,1.5-0.1,2.3,0c0.6,0.1,0.9,0.4,1.1,0.9c0.4,1.2,0.7,2.4,1,3.6c0.5,1.8,1,3.7,1.5,5.5
		c0,0.1,0.1,0.2,0.1,0.4c0.1-0.1,0.1-0.2,0.2-0.3c0.7-2.8,1.5-5.6,2.2-8.4c0.4-1.4,0.7-1.6,2.2-1.6c0.5,0,1.1-0.1,1.6,0
		c0.9,0.2,1.3,0.6,1.3,1.5c0,0.1,0,0.1,0,0.2c0,4.1,0,8.2,0,12.2c0,0.2,0,0.5-0.1,0.7c-0.1,0.8-0.7,1.2-1.5,1.2
		c-0.7,0-1.2-0.6-1.3-1.3c0-0.2,0-0.5,0-0.7c0-3.3,0-6.7,0-10c0-0.1,0-0.2,0-0.3C81,10.5,81,10.6,81,10.7z"/>
	<path class="st11" d="M97.7,15.4c1.9,1.3,3,3.1,3.9,5.1c0,0.1,0.1,0.2,0.1,0.2c0.4,0.9,0.1,1.3-0.4,1.7c-0.5,0.4-1.4,0.4-2,0
		c-0.2-0.2-0.5-0.4-0.6-0.7c-0.7-1.1-1.3-2.2-2-3.3c-0.3-0.5-0.6-1-1-1.4c-0.6-0.8-1.4-1.2-2.5-1.2c-0.3,0-0.6,0-0.9,0
		c-0.3,0-0.3,0.1-0.3,0.3c0,1.5,0,3,0,4.6c0,0.4,0,0.7-0.1,1c-0.2,0.6-0.7,1-1.4,1c-0.7,0-1.3-0.3-1.5-0.9c-0.1-0.3-0.2-0.6-0.2-1
		c0-4,0-8,0-12c0-0.1,0-0.3,0-0.4c0.2-1,0.7-1.5,1.7-1.5c2.1,0,4.2,0,6.3,0c1.4,0,2.7,0.3,3.6,1.4c0.9,1,1.2,2.1,1,3.4
		c-0.1,0.4-0.1,0.8-0.3,1.2c-0.5,1.1-1.4,1.7-2.4,2.1C98.5,15.2,98.1,15.3,97.7,15.4z M92.1,11.4c0,0.6,0,1.2,0,1.8
		c0,0.3,0.1,0.4,0.4,0.4c1,0,2,0,3.1,0c0.6,0,1.2-0.1,1.8-0.4c0.5-0.2,0.9-0.6,1-1.2c0.3-1.4-0.5-2.5-2-2.6c-1.3-0.1-2.7,0-4-0.1
		c-0.2,0-0.2,0.1-0.2,0.3C92.1,10.2,92.1,10.8,92.1,11.4z"/>
	<path class="st11" d="M105.3,15c0-1.7,0.2-3.1,0.9-4.4c1.1-2.1,2.8-3.3,5.1-3.7c1.7-0.3,3.4-0.2,5,0.5c2.4,1,3.6,2.9,4,5.3
		c0.1,0.6,0.2,1.3,0.2,2c0,2.3-0.4,4.4-2.1,6.1c-1.1,1.1-2.4,1.7-3.9,1.9c-1.7,0.3-3.3,0.2-4.9-0.5c-2.3-0.9-3.5-2.7-4-5
		C105.4,16.4,105.3,15.6,105.3,15z M113,20.4c1.7,0,3-1,3.7-2.3c0.9-1.8,0.9-3.8,0.4-5.7c-0.7-2.5-2.7-3.5-5-3.1
		c-1.4,0.2-2.3,1.1-2.9,2.3c-0.9,2-0.9,4.1,0,6.2C109.8,19.5,111.2,20.4,113,20.4z"/>
	<path class="st11" d="M58.3,18.8c-0.9,0-1.9,0-2.8,0c-0.2,0-0.3,0.1-0.4,0.3c-0.4,1-0.7,2-1.2,2.9c-0.4,0.8-1.4,1-2.1,0.5
		c-0.6-0.4-0.8-1-0.5-1.8c0.4-1,0.7-2,1.1-2.9c1.2-3.1,2.4-6.2,3.7-9.3c0.1-0.2,0.2-0.5,0.3-0.7c0.8-1.5,3-1.4,3.8-0.1
		c0.4,0.7,0.7,1.6,1,2.3c1.3,3.3,2.7,6.5,4,9.8c0.2,0.5,0.4,0.9,0.4,1.4c0,0.7-0.4,1.3-1.1,1.4c-0.7,0.2-1.3,0-1.6-0.6
		c-0.5-0.9-0.8-2-1.2-3c-0.1-0.2-0.2-0.3-0.5-0.3C60.2,18.8,59.2,18.8,58.3,18.8z M56,16.3c0.1,0,0.1,0,0.2,0c1.4,0,2.8,0,4.2,0
		c0.3,0,0.3-0.1,0.2-0.3c-0.4-1.1-0.8-2.3-1.2-3.4c-0.3-0.9-0.6-1.8-1-2.7C57.5,12.1,56.8,14.2,56,16.3z"/>
	<path class="st12" d="M43,22.7c-2,0-3.8-0.5-5.2-2c-1-1.1-1.6-2.4-1.9-3.9c-0.3-1.7-0.3-3.4,0.2-5.1c0.9-2.7,2.7-4.5,5.6-5
		c2.2-0.4,4.3,0,6.1,1.5c0.7,0.5,1.2,1.2,1.5,2c0.2,0.5,0.3,1,0.1,1.5c-0.1,0.5-0.5,0.8-1,0.9c-0.5,0.1-0.9,0-1.2-0.4
		c-0.3-0.3-0.5-0.8-0.7-1.2c-0.6-1-1.3-1.8-2.5-2c-2.1-0.4-3.8,0.5-4.6,2.7c-0.7,1.9-0.7,3.8,0,5.7c0.9,2.7,4.2,3.5,6.3,1.7
		c0.5-0.5,0.8-1,1.1-1.7c0.1-0.2,0.2-0.5,0.3-0.7c0.3-0.6,0.9-0.9,1.6-0.7c0.6,0.2,1,0.8,1,1.5c0,0.7-0.3,1.4-0.6,2
		c-1,1.7-2.6,2.7-4.6,2.9C43.8,22.7,43.4,22.7,43,22.7z"/>
	<path class="st13" d="M70.6,10.6c-0.1-0.1-0.1-0.1,0-0.2C70.7,10.4,70.7,10.5,70.6,10.6C70.7,10.6,70.6,10.6,70.6,10.6z"/>
	<path class="st14" d="M79.7,10.7c0-0.1,0-0.2,0.1-0.3c0,0.1,0,0.2,0,0.3C79.8,10.7,79.7,10.7,79.7,10.7z"/>
</g>
</svg>
